<svg xmlns="http://www.w3.org/2000/svg" width="30" height="30" viewBox="0 0 30 30">
  <g id="Group_603" data-name="Group 603" transform="translate(-33 -350)">
    <path id="Bg" d="M15,0A15,15,0,1,1,0,15,15,15,0,0,1,15,0Z" transform="translate(33 350)" fill="#f1faee"/>
    <path id="Icon_material-lock-open" data-name="Icon material-lock-open" d="M11,11.5a1.25,1.25,0,1,0-1.25-1.25A1.254,1.254,0,0,0,11,11.5Zm3.75-5.625h-.625V4.625a3.125,3.125,0,1,0-6.25,0H9.063a1.937,1.937,0,1,1,3.875,0v1.25H7.25A1.254,1.254,0,0,0,6,7.125v6.25a1.254,1.254,0,0,0,1.25,1.25h7.5A1.254,1.254,0,0,0,16,13.375V7.125A1.254,1.254,0,0,0,14.75,5.875Zm0,7.5H7.25V7.125h7.5Z" transform="translate(37 356.5)" fill="#457b9d"/>
  </g>
</svg>
