<svg xmlns="http://www.w3.org/2000/svg" width="19.713" height="19.851" viewBox="0 0 19.713 19.851">
  <path id="Icon_material-alarm-on" data-name="Icon material-alarm-on" d="M22.713,6.595l-4.534-3.8L16.907,4.3l4.534,3.8ZM8.8,4.3,7.534,2.79,3,6.585,4.271,8.093Zm4.061.6a8.871,8.871,0,0,0,0,17.742,9.028,9.028,0,0,0,6.117-2.447,8.678,8.678,0,0,0,2.754-6.424A8.872,8.872,0,0,0,12.856,4.9Zm0,15.77a6.9,6.9,0,1,1,6.9-6.9A6.894,6.894,0,0,1,12.856,20.67Zm-1.439-5.391-2.1-2.1L8.273,14.223l3.134,3.134,5.914-5.914L16.277,10.4l-4.859,4.879Z" transform="translate(-3 -2.79)" fill="#457b9d"/>
</svg>
