<svg xmlns="http://www.w3.org/2000/svg" width="30" height="30" viewBox="0 0 30 30">
  <g id="Group_604" data-name="Group 604" transform="translate(-33 -350)">
    <path id="Bg" d="M15,0A15,15,0,1,1,0,15,15,15,0,0,1,15,0Z" transform="translate(33 350)" fill="#f1faee"/>
    <path id="Icon_ionic-ios-contact" data-name="Icon ionic-ios-contact" d="M8.875,3.375h0A5.5,5.5,0,0,0,3.407,8.3a5.3,5.3,0,0,0,0,1.158,5.5,5.5,0,0,0,5.468,4.921h0a5.5,5.5,0,0,0,0-11ZM12.466,12c-.6-.227-1.573-.561-2.179-.74-.063-.019-.071-.024-.071-.283a1.5,1.5,0,0,1,.175-.616,3.073,3.073,0,0,0,.243-.836,1.858,1.858,0,0,0,.36-.87,1.16,1.16,0,0,0-.011-.73.468.468,0,0,1-.016-.045,4.755,4.755,0,0,1,.082-1.026A1.889,1.889,0,0,0,10.655,5.5a2.021,2.021,0,0,0-1.547-.74H8.645a2.019,2.019,0,0,0-1.534.74,1.881,1.881,0,0,0-.4,1.356A4.755,4.755,0,0,1,6.8,7.878c-.005.019-.011.032-.016.048a1.141,1.141,0,0,0-.011.73,1.887,1.887,0,0,0,.36.87,3.2,3.2,0,0,0,.243.836,1.477,1.477,0,0,1,.1.624c0,.262-.011.264-.069.283-.627.185-1.557.513-2.115.735A4.759,4.759,0,1,1,12.466,12Z" transform="translate(39.625 356.625)" fill="#457b9d"/>
  </g>
</svg>
