<svg xmlns="http://www.w3.org/2000/svg" width="33" height="33" viewBox="0 0 33 33">
  <g id="Group_5" data-name="Group 5" transform="translate(-71 -610)">
    <circle id="Ellipse_13" data-name="Ellipse 13" cx="16.5" cy="16.5" r="16.5" transform="translate(71 610)" fill="#fff" opacity="0.5"/>
    <path id="Icon_metro-mic" data-name="Icon metro-mic" d="M13.155,13.661a2.667,2.667,0,0,0,2.667-2.667v-6.4a2.667,2.667,0,1,0-5.333,0v6.4A2.667,2.667,0,0,0,13.155,13.661Zm3.733-4.267v1.6a3.733,3.733,0,1,1-7.467,0v-1.6H8.355v1.6a4.8,4.8,0,0,0,4.267,4.77v2.163H10.488v1.067h5.333V17.928H13.688V15.765a4.8,4.8,0,0,0,4.267-4.77v-1.6H16.888Z" transform="translate(74.345 616.039)" fill="#fff"/>
  </g>
</svg>
