<svg xmlns="http://www.w3.org/2000/svg" width="33" height="33" viewBox="0 0 33 33">
  <g id="Group_6" data-name="Group 6" transform="translate(-71 -610)">
    <circle id="Ellipse_13" data-name="Ellipse 13" cx="16.5" cy="16.5" r="16.5" transform="translate(71 610)" fill="#fff" opacity="0.5"/>
    <g id="Icon_ionic-ios-volume-high" data-name="Icon ionic-ios-volume-high" transform="translate(72.134 610.7)">
      <path id="Path_82" data-name="Path 82" d="M13.07,10.208a.876.876,0,0,0-.39-.09.906.906,0,0,0-.566.2L8.426,13.291H5.44a.908.908,0,0,0-.9.9V18.72a.908.908,0,0,0,.9.9H8.426l3.688,2.969a.918.918,0,0,0,.566.2.876.876,0,0,0,.39-.09.9.9,0,0,0,.515-.814V11.029A.907.907,0,0,0,13.07,10.208Z" transform="translate(0 -0.659)" fill="#fff"/>
      <path id="Path_83" data-name="Path 83" d="M30.284,15.8a12.347,12.347,0,0,0-3.7-8.851.68.68,0,1,0-.956.967A10.99,10.99,0,0,1,28.921,15.8h0a11.013,11.013,0,0,1-3.292,7.884.679.679,0,0,0-.006.961.664.664,0,0,0,.481.2.678.678,0,0,0,.475-.2,12.32,12.32,0,0,0,3.7-8.851Z" transform="translate(-4.087)" fill="#fff"/>
      <path id="Path_84" data-name="Path 84" d="M26.137,16.37h0a9.186,9.186,0,0,0-2.647-6.5.68.68,0,1,0-.967.956,7.851,7.851,0,0,1,2.257,5.548h0a7.851,7.851,0,0,1-2.257,5.548A.682.682,0,0,0,23,23.084a.664.664,0,0,0,.481-.2,9.237,9.237,0,0,0,2.653-6.51Z" transform="translate(-3.48 -0.571)" fill="#fff"/>
      <path id="Path_85" data-name="Path 85" d="M19.932,12.783a.68.68,0,1,0-.967.956,4.526,4.526,0,0,1,1.3,3.2h0a4.546,4.546,0,0,1-1.3,3.2.682.682,0,0,0,.481,1.159.664.664,0,0,0,.481-.2,5.87,5.87,0,0,0,1.691-4.151h0A5.858,5.858,0,0,0,19.932,12.783Z" transform="translate(-2.784 -1.14)" fill="#fff"/>
    </g>
  </g>
</svg>
